<svg xmlns="http://www.w3.org/2000/svg" xml:space="preserve" viewBox="0 0 640 480"><path fill="red" d="M0 0h640v480H0Z"/><path fill="#ff0" fill-rule="evenodd" d="m341 147 2-52v-1l-14 51a6 6 0 1 0 12 2m14 4 11-51h-1l-21 47v1a6 6 0 1 0 11 3m14 7 18-49-29 43a6 6 0 1 0 11 5m12 9 26-45-1-1-34 39h-1a6 6 0 1 0 10 7m11 10 33-40v-1h-1l-40 33h-1a6 6 0 1 0 9 9m9 12 38-35v-1l-45 26a6 6 0 1 0 7 9m7 14 44-29h-1l-48 18h-1a6 6 0 1 0 6 11m5 14 47-21v-1l-51 11a6 6 0 1 0 4 11m2 15 51-14-52 2h-1a6 6 0 1 0 2 12m1 15 51-6h1l-1-1-51-5h-1a6 6 0 1 0 1 12m-2 15 52 2v-1l-50-13h-1a6 6 0 1 0-1 12m-5 14 51 11 1-1h-1l-47-21h-1a6 6 0 1 0-3 11m-7 14 49 18v-1l-43-28a6 6 0 1 0-5 11m-9 12 45 26 1-1-39-34v-1a6 6 0 1 0-7 10m-10 11 40 33 1-1-33-40v-1a6 6 0 1 0-8 9m-12 9 34 38h1l-26-45a6 6 0 1 0-10 7m-13 7 28 44h1v-1l-18-48-1-1a6 6 0 1 0-10 6m-14 5 21 47 1 1v-1l-11-51a6 6 0 1 0-11 4m-15 2 13 51h1l-2-52v-1a6 6 0 1 0-12 2m-15 1 5 51h1l6-51a6 6 0 0 0-6-7 6 6 0 0 0-6 7m-15-2-2 52 14-50v-1a6 6 0 1 0-12-1m-14-5-11 51h1l21-47v-1a6 6 0 1 0-11-3m-14-6-18 48v1-1l29-43a6 6 0 0 0-3-8 6 6 0 0 0-8 2m-12-8-26 45h1l34-38 1-1a6 6 0 1 0-10-6m-11-11-33 41h1l40-32 1-1a6 6 0 1 0-9-8m-9-12-38 35v1l45-26a6 6 0 1 0-7-10m-7-13-43 29 48-18 1-1a6 6 0 1 0-6-10m-5-14-47 21-1 1h1l51-11a6 6 0 1 0-4-11m-2-15-51 13 1 1 51-2h1a6 6 0 1 0-2-12m-1-15-51 5v1l51 6h1a6 6 0 1 0-1-12m3-15-52-2h-1l51 14a6 6 0 1 0 2-12m4-14-51-11h-1l1 1 47 21h1a6 6 0 1 0 3-11m7-14-49-18 43 29a6 6 0 1 0 6-11m8-12-45-26h-1l1 1 38 34 1 1a6 6 0 1 0 6-10m11-11-41-32q-1 0 0 0l32 40 1 1a6 6 0 1 0 8-9m12-9-35-38h-1l26 45a6 6 0 1 0 10-7m13-7-29-43 18 48 1 1a6 6 0 1 0 10-6m14-5-21-47h-1l11 51a6 6 0 1 0 11-4m15-2-14-51v1l2 51v1a6 6 0 1 0 12-2m15 0-5-52h-1l-6 51v1a6 6 0 1 0 12 0m-6 6a89 89 0 1 1 0 178 89 89 0 0 1 0-178m0 11a79 79 0 1 1 0 157 79 79 0 0 1 0-157m-66 102a155 155 0 0 1 32-44l6 4a155 155 0 0 0-34 48zm72-41 5 5 6-5-6-4zm-12-9 6 5 6-5-6-4zm1 19 5 5 5-5-5-5zm-12-10 6 5 6-5-6-4zm36-17-6-4-7 4 6 4zm10 9-5-5-7 4 6 5zm-36-17 7-4 7 4-7 4zm-12 8 6-4 7 4-6 4zm-10 9 5-5 7 4-6 5zm-33-10 22 10a153 153 0 0 0-29 38 71 71 0 0 1 7-48m6-9q13 4 26 11l-5 4-24-11zm8-9q14 4 29 12l-6 4q-14-7-27-11zm11-8h1q15 4 30 12l-8 4-30-12zm68-4q-15 4-30 12-15-8-30-12h-1a70 70 0 0 1 62 0m13 8q-15 4-30 11l-7-4 31-12zm8 8q-14 5-27 12l-6-4q15-8 29-12zm7 9-24 11-5-4q13-7 26-11zm10 53a153 153 0 0 0-29-38l22-10a70 70 0 0 1 7 48m-7 19a155 155 0 0 0-34-48l6-5a157 157 0 0 1 32 44zm-11 15q-14-33-35-54l6-5q22 22 35 52zm-14 11v-3q-12-31-32-52l5-5a151 151 0 0 1 34 55zm-67 4v-3q11-29 30-51 20 23 29 51l1 3a70 70 0 0 1-60 0m-15-9a151 151 0 0 1 34-55l6 5a158 158 0 0 0-32 52l-1 3zm-12-13q13-30 35-52l6 5a157 157 0 0 0-35 54z"/></svg>