<svg xmlns="http://www.w3.org/2000/svg" fill="#ffd900" viewBox="0 0 640 480"><path fill="#da2032" d="M0 0h640v480H0Z"/><path fill="#0066b3" d="M213 0h214v480H213Z"/><circle cx="106.7" cy="181.8" r="40"/><circle cx="106.7" cy="163.6" r="43.6" fill="#da2032"/><circle cx="106.7" cy="170.9" r="29.1"/><path d="M110 76a9 9 0 0 0-5 8q-1 3 1 8c0 4-5 5-5 11l2 10q-1 4-4 3l-3-3 1-3q2-1 2-3l-1-5 1-7-5 6-1 6-2 3-2 6a18 18 0 0 0 36 0l-2-5-2-4-2-6q-1-4-5-6 3 4 2 7l-2 4q0 4 2 4h1l1 3-4 3q-3 0-4-3c0-7 3-8 3-13 0-7-6-11-6-16q-1-3 3-8M27 229h36v175H27Zm123 0h37v175h-37zm-80 0h73l-36 22Zm0 29h73v15H70Zm0 102h73v14H70Zm0 22h73l-36 21Z"/><circle cx="106.7" cy="316.4" r="36.4"/><g fill="#da2032" transform="translate(-38.8 32.7)scale(.72727)"><circle cx="200" cy="363.5" r="10"/><circle cx="200" cy="416.5" r="10"/><path d="M200 334a30 30 0 0 1 0 59 24 24 0 0 0 0 47v6a30 30 0 0 1 0-59 24 24 0 0 0 0-47z"/></g></svg>