<svg xmlns="http://www.w3.org/2000/svg" viewBox="0 0 512 512">
  <rect width="512" height="512" fill="#050505"/>
  <path fill="#fff" fill-rule="evenodd" d="M249.9 19.4c-18.7 0-37 5-53 14.4L81.1 101.6a105.7 105.7 0 0 0-52.3 91.2v128.8c0 40.6 22.6 77.8 58.6 96.5a20.6 20.6 0 0 0 30.1-18.3v-4.1c0-7.7-4.3-14.8-11.1-18.4a63.3 63.3 0 0 1-33.9-56V193c0-22.6 12.1-43.6 31.8-54.9l115.8-67.9a61.5 61.5 0 0 1 61.9 0l115.7 67.9a63.5 63.5 0 0 1 31.8 54.9v126.6c0 22.6-12.1 43.5-31.8 54.9L282 442.3a61.5 61.5 0 0 1-61.9 0l-58-34a43.2 43.2 0 0 1-21.5-37.2V198.9c0-23.9 19.4-43.3 43.3-43.3h150.2c23.9 0 43.3 19.4 43.3 43.3v69.7c0 23.9-19.4 43.3-43.3 43.3H242.7a20.7 20.7 0 0 0 0 41.4h91.4c46.7 0 84.7-38 84.7-84.7v-69.7c0-46.7-38-84.7-84.7-84.7H183.9c-46.7 0-84.7 38-84.7 84.7v172.2c0 30 16.1 57.7 42 72.9l58 34a102.8 102.8 0 0 0 103.8 0l115.8-67.8a105.5 105.5 0 0 0 52.3-91.2V193a105.5 105.5 0 0 0-52.3-91.2L303 33.8a104 104 0 0 0-53.1-14.4Zm-23.5 168.4a20.7 20.7 0 0 0-20.7 20.7v179.2a20.7 20.7 0 1 0 41.4 0V229.2h75.1v40.4h-36.5a20.7 20.7 0 1 0 0 41.4h57.2a20.7 20.7 0 0 0 20.7-20.7v-81.8a20.7 20.7 0 0 0-20.7-20.7H226.4Z"/>
</svg>
